<svg xmlns="http://www.w3.org/2000/svg" viewBox="0 0 128 128" width="128" height="128">
  <defs>
    <linearGradient id="bg" x1="0%" y1="0%" x2="100%" y2="100%">
      <stop offset="0%" stop-color="#6366f1"/>
      <stop offset="100%" stop-color="#4f46e5"/>
    </linearGradient>
    <linearGradient id="shine" x1="0%" y1="0%" x2="100%" y2="100%">
      <stop offset="0%" stop-color="rgba(255,255,255,0.2)"/>
      <stop offset="50%" stop-color="rgba(255,255,255,0)"/>
    </linearGradient>
  </defs>
  <!-- Background -->
  <rect width="128" height="128" rx="28" fill="url(#bg)"/>
  <!-- Shine overlay -->
  <rect width="128" height="128" rx="28" fill="url(#shine)"/>
  <!-- Person silhouette -->
  <g fill="white">
    <!-- Head -->
    <circle cx="64" cy="48" r="16"/>
    <!-- Body/shoulders -->
    <path d="M34,100 C34,80 44,72 64,72 C84,72 94,80 94,100 L94,104 L34,104 Z"/>
  </g>
  <!-- Star/sparkle above head -->
  <g fill="white" transform="translate(56, 14)">
    <path d="M8,0 L10,5 L16,6 L11,10 L12,16 L8,13 L4,16 L5,10 L0,6 L6,5 Z"/>
  </g>
  <!-- Small sparkle accents -->
  <g fill="white" opacity="0.6" transform="translate(82, 32)">
    <path d="M4,0 L5,3 L8,4 L5,5 L4,8 L3,5 L0,4 L3,3 Z"/>
  </g>
  <g fill="white" opacity="0.4" transform="translate(38, 28)">
    <path d="M3,0 L3.8,2.2 L6,3 L3.8,3.8 L3,6 L2.2,3.8 L0,3 L2.2,2.2 Z"/>
  </g>
</svg>